#!OML:ASF H:\GeneralSubjects\Female5\Project 1\Capture day 1\Session 1\Female5.ASF
:FULLY-SPECIFIED
:DEGREES
210
root -24.3626 15.7925 1.20469 -157.782 68.8231 194.818
lowerback 5.08655 1.8356 6.33326
upperback -10.9567 4.25132 2.64254
thorax -14.7827 1.74359 -1.39215
lowerneck -23.2047 -8.99603 -13.4294
upperneck 46.3026 -5.50466 1.08303
head 26.3908 -3.41784 2.10075
rclavicle 4.6118e-014 2.62396e-014
rhumerus -1.30792 3.92362 -49.8906
rradius 79.0286
rwrist 14.5242
rhand -1.98466 -19.2472
rfingers 7.12502
rthumb 23.6881 -47.8075
lclavicle 4.6118e-014 2.62396e-014
lhumerus -54.1945 18.1193 57.0233
lradius 41.1873
lwrist -4.47726
lhand -16.4155 37.9936
lfingers 7.12502
lthumb 9.79929 67.7456
rfemur 13.5809 26.899 45.6017
rtibia -6.88431
rfoot -38.3423 -35.5106
rtoes 7.93903
lfemur -29.4969 -21.256 -7.67599
ltibia 21.8353
lfoot -12.5412 9.08407
ltoes -76.9966
211
root -24.371 15.7906 1.20583 -157.643 68.8435 194.985
lowerback 5.03788 1.84746 6.2709
upperback -10.9158 4.25376 2.67897
thorax -14.7069 1.75689 -1.3147
lowerneck -23.2361 -8.9464 -13.2693
upperneck 46.2764 -5.45004 0.972508
head 26.3273 -3.38191 2.0163
rclavicle -1.81888e-014 -2.06736e-014
rhumerus -1.06919 5.10297 -49.679
rradius 78.8036
rwrist 13.536
rhand -0.0149632 -20.5815
rfingers 7.12502
rthumb 25.576 -48.8843
lclavicle -1.81888e-014 -2.06736e-014
lhumerus -54.0921 18.1848 57.1493
lradius 41.0335
lwrist -4.50631
lhand -15.8951 37.681
lfingers 7.12502
lthumb 10.3013 67.4087
rfemur 13.5693 26.8785 45.6344
rtibia -6.90066
rfoot -38.6185 -35.152
rtoes 9.33731
lfemur -29.5681 -21.1075 -7.65164
ltibia 21.9915
lfoot -12.6845 8.98344
ltoes -76.9899
212
root -24.3783 15.7889 1.20565 -157.63 68.8794 195.044
lowerback 5.0239 1.85343 6.15715
upperback -10.8893 4.24474 2.70308
thorax -14.6733 1.76774 -1.22267
lowerneck -23.224 -8.86962 -13.0208
upperneck 46.2631 -5.36753 0.80004
head 26.235 -3.32533 1.88783
rclavicle -8.41853e-014 -4.49253e-014
rhumerus -0.948989 6.5307 -49.2839
rradius 78.6208
rwrist 12.1349
rhand 2.85664 -22.4239
rfingers 7.12502
rthumb 28.3236 -50.302
lclavicle -8.41853e-014 -4.49253e-014
lhumerus -54.0422 18.3763 57.1597
lradius 40.808
lwrist -4.79536
lhand -15.9589 37.6205
lfingers 7.12502
lthumb 10.2398 67.3513
rfemur 13.6835 27.1518 45.7448
rtibia -6.93323
rfoot -39.1413 -34.7138
rtoes 11.0058
lfemur -29.5781 -20.9895 -7.71048
ltibia 22.125
lfoot -12.8865 8.85695
ltoes -76.9865
213
root -24.3848 15.7883 1.20742 -157.651 68.9213 195.072
lowerback 5.05114 1.85204 6.03717
upperback -10.8806 4.22775 2.70654
thorax -14.687 1.77198 -1.151
lowerneck -23.2099 -8.82272 -12.8242
upperneck 46.2762 -5.34186 0.697952
head 26.1997 -3.28957 1.79735
rclavicle 1.73937e-014 -1.82882e-014
rhumerus -0.866262 8.32653 -48.7756
rradius 78.4185
rwrist 10.543
rhand 6.28837 -24.0049
rfingers 7.12502
rthumb 31.5981 -51.2906
lclavicle 1.73937e-014 -1.82882e-014
lhumerus -53.921 18.4471 57.2499
lradius 40.5933
lwrist -4.83652
lhand -16.2827 37.5076
lfingers 7.12502
lthumb 9.92742 67.2535
rfemur 13.8335 27.5116 45.8835
rtibia -6.97203
rfoot -39.1174 -35.5319
rtoes 9.55674
lfemur -29.586 -20.9166 -7.73444
ltibia 22.2391
lfoot -12.9306 8.78098
ltoes -76.969
214
root -24.3909 15.7847 1.20939 -157.333 68.9326 195.395
lowerback 5.00325 1.86053 6.01411
upperback -10.8733 4.23678 2.74025
thorax -14.6511 1.78343 -1.10017
lowerneck -23.2568 -8.82745 -12.6983
upperneck 46.2816 -5.38644 0.63998
head 26.2118 -3.28791 1.72361
rclavicle -2.46493e-014 4.41302e-014
rhumerus -0.916222 10.6942 -48.086
rradius 78.4008
rwrist 9.35334
rhand 9.46095 -24.9781
rfingers 7.12502
rthumb 34.6149 -51.6232
lclavicle -2.46493e-014 4.41302e-014
lhumerus -53.703 18.3682 57.513
lradius 40.4097
lwrist -4.72255
lhand -15.9901 37.1202
lfingers 7.12502
lthumb 10.2097 66.8524
rfemur 13.8676 27.7134 46.0457
rtibia -7.00667
rfoot -38.796 -36.6439
rtoes 6.57379
lfemur -29.721 -20.752 -7.58537
ltibia 22.4042
lfoot -12.9621 8.70964
ltoes -76.9567
215
root -24.3937 15.7792 1.20815 -156.86 68.9357 195.86
lowerback 4.90198 1.86755 6.07575
upperback -10.8652 4.25231 2.78501
thorax -14.5766 1.79154 -1.08235
lowerneck -23.2975 -8.80315 -12.6442
upperneck 46.2582 -5.39709 0.676495
head 26.1993 -3.2784 1.73094
rclavicle -1.63003e-014 -1.86858e-014
rhumerus -1.11741 13.8534 -47.1457
rradius 78.6385
rwrist 9.1826
rhand 12.1388 -25.7802
rfingers 7.12502
rthumb 37.152 -51.8052
lclavicle -1.63003e-014 -1.86858e-014
lhumerus -53.4982 18.3475 57.7904
lradius 40.2156
lwrist -4.75971
lhand -15.7382 37.0893
lfingers 7.12502
lthumb 10.4527 66.8094
rfemur 13.9301 28.0014 46.2878
rtibia -7.06712
rfoot -39.6037 -36.1204
rtoes 8.33582
lfemur -29.9038 -20.4863 -7.38968
ltibia 22.6318
lfoot -13.2512 8.63986
ltoes -76.9691
